<svg width="18" height="18" viewBox="0 0 18 18" fill="none" xmlns="http://www.w3.org/2000/svg">
<g clip-path="url(#clip0_35_15)">
<path fill-rule="evenodd" clip-rule="evenodd" d="M9 1C10.6572 1 12 2.34315 12 4H6C6 2.34315 7.34277 1 9 1ZM5 4C5 1.79086 6.79102 0 9 0C11.209 0 13 1.79086 13 4H14C15.1045 4 16 4.89543 16 6V16C16 17.1046 15.1045 18 14 18H4C2.89551 18 2 17.1046 2 16V6C2 4.89543 2.89551 4 4 4H5ZM14 5H13V6.5C13 6.77615 12.7764 7 12.5 7C12.2236 7 12 6.77615 12 6.5V5H6V6.5C6 6.77615 5.77637 7 5.5 7C5.22363 7 5 6.77615 5 6.5V5H4C3.44727 5 3 5.44772 3 6V16C3 16.5523 3.44727 17 4 17H14C14.5527 17 15 16.5523 15 16V6C15 5.44772 14.5527 5 14 5Z" fill="#298EC6"/>
</g>
<defs>
<clipPath id="clip0_35_15">
<rect width="18" height="18" fill="white"/>
</clipPath>
</defs>
</svg>
