<svg width="963" height="700" viewBox="0 0 963 700" fill="none" xmlns="http://www.w3.org/2000/svg">
<g clip-path="url(#clip0_2_321)">
<rect width="963" height="700" fill="#298EC6"/>
<path fill-rule="evenodd" clip-rule="evenodd" d="M194.864 6V0H204.364L194.864 6ZM195.864 9L196.864 13.5L218.864 0H212.364L195.864 9ZM200.864 21L198.864 17L227.864 0H234.864L200.864 21ZM201.864 24L203.864 28L251.864 0H243.364L201.864 24ZM207.864 35L204.864 31L258.864 0H266.864L207.864 35ZM208.864 38L211.864 42L283.364 0H274.864L208.864 38ZM215.864 48L213.864 44L290.864 0H298.364L215.864 48ZM218.864 50L220.864 53L312.864 0H305.864L218.864 50ZM320.864 0L222.636 56.4084C241.375 75.8826 267.704 88 296.864 88C348.654 88 391.517 49.7758 398.78 0H320.864ZM130.447 43.5205C130.033 42.8031 130.278 41.8857 130.996 41.4715C131.713 41.0573 132.631 41.3031 133.045 42.0205L136.569 48.1243L142.784 44.8007C143.515 44.4101 144.424 44.6856 144.814 45.4161C145.205 46.1467 144.929 47.0556 144.199 47.4462L138.07 50.7237L141.545 56.7429C141.959 57.4604 141.713 58.3778 140.996 58.792C140.278 59.2062 139.361 58.9604 138.947 58.2429L135.423 52.1392L129.208 55.4627C128.477 55.8534 127.568 55.5779 127.178 54.8473C126.787 54.1168 127.062 53.2079 127.793 52.8172L133.922 49.5397L130.447 43.5205ZM784.311 52.2503C783.897 51.5328 784.143 50.6154 784.86 50.2012C785.578 49.787 786.495 50.0328 786.909 50.7503L790.433 56.854L796.648 53.5305C797.379 53.1398 798.288 53.4153 798.678 54.1459C799.069 54.8764 798.794 55.7853 798.063 56.176L791.934 59.4535L795.409 65.4727C795.823 66.1901 795.578 67.1075 794.86 67.5217C794.143 67.9359 793.225 67.6901 792.811 66.9727L789.287 60.8689L783.072 64.1925C782.341 64.5831 781.432 64.3076 781.042 63.5771C780.651 62.8465 780.927 61.9376 781.657 61.547L787.786 58.2695L784.311 52.2503ZM389.864 106.5C389.864 111.194 386.059 115 381.364 115C376.67 115 372.864 111.194 372.864 106.5C372.864 101.806 376.67 98 381.364 98C386.059 98 389.864 101.806 389.864 106.5ZM392.864 106.5C392.864 112.851 387.715 118 381.364 118C375.013 118 369.864 112.851 369.864 106.5C369.864 100.149 375.013 95 381.364 95C387.715 95 392.864 100.149 392.864 106.5ZM288.192 220.441L284.526 221.703L252.702 232.658L249.563 233.738L251.883 236.113L271.686 256.379L274.006 258.753L275.159 255.64L286.846 224.078L288.192 220.441ZM283.18 225.34L255.022 235.032L272.839 253.266L283.18 225.34ZM156.95 307.355L142.85 292L139.904 312.638L156.95 307.355ZM200.69 402.702L196.19 411.202L195.449 412.6L194.092 411.786L188.118 408.201L185.262 415.544L184.636 417.155L183.129 416.307L176.565 412.615L173.235 420.109L172.597 421.544L171.193 420.842L164.666 417.578L161.762 425.044L161.118 426.701L159.592 425.786L153.618 422.201L150.762 429.544L147.966 428.456L151.466 419.456L152.111 417.799L153.636 418.714L159.611 422.299L162.466 414.956L163.063 413.422L164.535 414.158L171.131 417.456L174.493 409.891L175.163 408.385L176.6 409.193L183.093 412.845L185.966 405.456L186.611 403.799L188.136 404.714L194.279 408.4L198.038 401.298L200.69 402.702ZM824.364 632.5H829.864V629.5H824.364V632.5ZM811.864 636.5H827.864V633.5H811.864V636.5ZM796.864 640.5H827.864V637.5H796.864V640.5ZM795.864 644.5H825.864V641.5H795.864V644.5ZM800.864 648.5H824.364V645.5H800.864V648.5ZM804.864 653.5H823.364V650.5H804.864V653.5ZM809.864 658.5H821.864V655.5H809.864V658.5ZM813.864 663.5H819.864V660.5H813.864V663.5Z" fill="#56ADDD"/>
<circle cx="1025" cy="359" r="212" stroke="url(#paint0_linear_2_321)" stroke-width="150"/>
<circle cx="284" cy="746" r="212" stroke="#56ADDD" stroke-width="150"/>
</g>
<defs>
<linearGradient id="paint0_linear_2_321" x1="1025" y1="72" x2="1025" y2="646" gradientUnits="userSpaceOnUse">
<stop stop-color="#56ADDD" stop-opacity="0.5"/>
<stop offset="1" stop-color="#56ADDD"/>
</linearGradient>
<clipPath id="clip0_2_321">
<rect width="963" height="700" fill="white"/>
</clipPath>
</defs>
</svg>
