<svg width="18" height="18" viewBox="0 0 18 18" fill="none" xmlns="http://www.w3.org/2000/svg">
<path fill-rule="evenodd" clip-rule="evenodd" d="M3.82032 6.64064C5.37794 6.64064 6.64064 5.37794 6.64064 3.82032C6.64064 2.2627 5.37794 1 3.82032 1C2.2627 1 1 2.2627 1 3.82032C1 5.37794 2.2627 6.64064 3.82032 6.64064ZM3.82032 7.64064C5.93022 7.64064 7.64064 5.93022 7.64064 3.82032C7.64064 1.71042 5.93022 0 3.82032 0C1.71042 0 0 1.71042 0 3.82032C0 5.93022 1.71042 7.64064 3.82032 7.64064ZM3.82032 16.3651C5.37794 16.3651 6.64064 15.1024 6.64064 13.5448C6.64064 11.9872 5.37794 10.7245 3.82032 10.7245C2.2627 10.7245 1 11.9872 1 13.5448C1 15.1024 2.2627 16.3651 3.82032 16.3651ZM3.82032 17.3651C5.93022 17.3651 7.64064 15.6547 7.64064 13.5448C7.64064 11.4349 5.93022 9.72445 3.82032 9.72445C1.71042 9.72445 0 11.4349 0 13.5448C0 15.6547 1.71042 17.3651 3.82032 17.3651ZM16.3651 3.82032C16.3651 5.37794 15.1024 6.64064 13.5448 6.64064C11.9872 6.64064 10.7245 5.37794 10.7245 3.82032C10.7245 2.2627 11.9872 1 13.5448 1C15.1024 1 16.3651 2.2627 16.3651 3.82032ZM17.3651 3.82032C17.3651 5.93022 15.6547 7.64064 13.5448 7.64064C11.4349 7.64064 9.72445 5.93022 9.72445 3.82032C9.72445 1.71042 11.4349 0 13.5448 0C15.6547 0 17.3651 1.71042 17.3651 3.82032ZM13.5448 16.3651C15.1024 16.3651 16.3651 15.1024 16.3651 13.5448C16.3651 11.9872 15.1024 10.7245 13.5448 10.7245C11.9872 10.7245 10.7245 11.9872 10.7245 13.5448C10.7245 15.1024 11.9872 16.3651 13.5448 16.3651ZM16.4809 15.9891C17.033 15.3267 17.3651 14.4745 17.3651 13.5448C17.3651 11.4349 15.6547 9.72445 13.5448 9.72445C11.4349 9.72445 9.72445 11.4349 9.72445 13.5448C9.72445 15.6547 11.4349 17.3651 13.5448 17.3651C14.4748 17.3651 15.3272 17.0327 15.9898 16.4803L17.5096 18.0001L18.0007 17.509L16.4809 15.9891Z" fill="#298EC6"/>
</svg>
