<svg width="15" height="18" viewBox="0 0 15 18" fill="none" xmlns="http://www.w3.org/2000/svg">
<path d="M7.972 17.6332C6.8965 17.9032 5.89862 17.0887 5.8255 16.0357C5.7445 14.8545 5.56675 13.7689 5.344 13.122C5.20337 12.717 4.80512 11.9835 4.174 11.2793C3.54737 10.5773 2.73175 9.95288 1.77663 9.693C1.02063 9.486 0.25 8.83125 0.25 7.875V3.375C0.25 2.42437 1.01725 1.728 1.879 1.63575C3.08275 1.50862 3.6385 1.16888 4.2055 0.822375L4.2595 0.78975C4.5655 0.603 4.90975 0.397125 5.35075 0.24525C5.79737 0.09 6.31937 0 7 0H10.9375C11.9916 0 12.7364 0.53775 13.1133 1.197C13.2978 1.51988 13.399 1.87988 13.399 2.22412C13.399 2.39512 13.3731 2.57512 13.3124 2.74612C13.5385 3.04087 13.7399 3.39525 13.8614 3.75863C13.9851 4.12988 14.0549 4.61588 13.8659 5.05238C13.9435 5.19863 14.0009 5.35388 14.0448 5.50575C14.1314 5.8095 14.1719 6.14362 14.1719 6.46875C14.1719 6.79388 14.1314 7.128 14.0448 7.43175C14.0054 7.56675 13.9547 7.70625 13.8895 7.84012C14.3327 8.4825 14.3597 9.19012 14.1527 9.78975C13.921 10.4557 13.3855 11.0272 12.8027 11.2207C11.8499 11.5391 10.7744 11.5313 9.97225 11.4581C9.80572 11.4431 9.63956 11.4244 9.47388 11.4019C9.86438 13.0735 9.84043 14.8153 9.40413 16.4756C9.24888 17.0471 8.78538 17.4296 8.26562 17.5601L7.972 17.6332ZM10.9375 1.125H7C6.42625 1.125 6.02913 1.2015 5.7175 1.30837C5.40138 1.4175 5.14825 1.566 4.8445 1.7505L4.7995 1.77862C4.17513 2.15887 3.45175 2.59987 1.99825 2.75512C1.62362 2.7945 1.375 3.08138 1.375 3.37388V7.875C1.375 8.16187 1.62925 8.48588 2.0725 8.60625C3.30437 8.94375 4.29663 9.72788 5.01325 10.5289C5.72763 11.3276 6.21025 12.1883 6.406 12.753C6.67938 13.5405 6.86387 14.742 6.94825 15.9592C6.97637 16.3665 7.35325 16.6286 7.69863 16.542L7.99338 16.4689C8.17338 16.4239 8.28362 16.3069 8.31737 16.182C8.77703 14.4311 8.72038 12.5847 8.15425 10.8652C8.12248 10.7697 8.11695 10.6674 8.13821 10.569C8.15948 10.4706 8.20678 10.3796 8.27516 10.3057C8.34355 10.2318 8.43052 10.1777 8.52699 10.1488C8.62346 10.12 8.72591 10.1176 8.82363 10.1419H8.827L8.84275 10.1464L8.908 10.161C9.2927 10.2427 9.68187 10.3017 10.0735 10.3376C10.8194 10.4051 11.7126 10.3984 12.4473 10.1543C12.6441 10.0879 12.9535 9.81562 13.0885 9.42188C13.2089 9.07538 13.1864 8.66813 12.7892 8.27325L12.3921 7.875L12.7892 7.47675C12.8376 7.4295 12.9074 7.31925 12.9625 7.12237C13.0165 6.9345 13.0469 6.70612 13.0469 6.46875C13.0469 6.23138 13.0165 6.003 12.9625 5.81513C12.9063 5.61938 12.8376 5.508 12.7892 5.46075L12.3921 5.0625L12.7892 4.66425C12.8421 4.61137 12.9119 4.46625 12.7949 4.11525C12.6728 3.77637 12.479 3.46784 12.2267 3.21075L11.8296 2.8125L12.2267 2.41425C12.2335 2.40862 12.2729 2.358 12.2729 2.223C12.2677 2.05837 12.2209 1.89774 12.1367 1.75612C11.95 1.431 11.5709 1.125 10.9375 1.125Z" fill="#DC3545"/>
</svg>
