<svg width="11" height="14" viewBox="0 0 11 14" fill="none" xmlns="http://www.w3.org/2000/svg">
<g clip-path="url(#clip0_21_1627)">
<path d="M2.53143 3.25025C2.45394 2.22666 2.70678 1.34172 3.49385 0.664756C4.01992 0.208013 4.63978 -0.00812453 5.34121 3.16072e-05C5.74494 0.00410967 6.12828 0.0979052 6.49123 0.269184C6.85417 0.444541 7.16411 0.689225 7.42103 0.99508C7.67794 1.30501 7.88185 1.65165 7.95933 2.04314C8.03274 2.43056 8.0572 2.82613 8.10614 3.25025C8.20809 3.25025 8.34267 3.24209 8.47724 3.25433C8.66891 3.27064 8.86874 3.27472 9.04817 3.32773C9.65173 3.50309 10.0391 4.02508 10.084 4.69389C10.2104 6.59834 10.3328 8.49872 10.4592 10.4032C10.504 11.072 10.5489 11.7408 10.5978 12.4137C10.659 13.266 10.0228 13.9837 9.16644 13.996C8.07352 14.0123 6.97652 14 5.8836 14C4.42773 14 2.97186 14 1.51599 14C0.765623 14 0.170225 13.5637 0.0356487 12.8704C-0.0255223 12.5686 0.00710228 12.2424 0.0234145 11.9325C0.0845855 10.9211 0.153913 9.91381 0.22324 8.90245C0.300723 7.75244 0.378206 6.59834 0.45569 5.44833C0.47608 5.15879 0.480158 4.86924 0.516861 4.5797C0.618812 3.77632 1.20605 3.26248 2.01351 3.25025C2.17256 3.25025 2.33568 3.25025 2.53143 3.25025ZM7.08662 3.24209C7.08662 3.06266 7.0907 2.89954 7.08662 2.73641C7.04584 1.59048 6.01002 0.766708 4.90894 1.01955C4.01176 1.22345 3.35519 2.01867 3.51832 3.24209C4.69688 3.24209 5.8836 3.24209 7.08662 3.24209ZM5.28004 8.14393C6.40967 8.09499 7.24567 7.59339 7.77174 6.59426C7.91039 6.32919 7.82068 6.03965 7.57599 5.91323C7.32723 5.78681 7.04992 5.88468 6.90719 6.14976C6.56055 6.79817 6.02633 7.15704 5.2882 7.15296C4.55415 7.15296 4.024 6.79409 3.68144 6.15383C3.53463 5.8806 3.25324 5.78273 3.0004 5.91731C2.75572 6.0478 2.67416 6.33327 2.81689 6.60242C3.34296 7.59339 4.17489 8.09091 5.28004 8.14393Z" fill="white"/>
</g>
<defs>
<clipPath id="clip0_21_1627">
<rect width="10.603" height="14" fill="white"/>
</clipPath>
</defs>
</svg>
