<svg width="22" height="18" viewBox="0 0 22 18" fill="none" xmlns="http://www.w3.org/2000/svg">
<g clip-path="url(#clip0_10_6)">
<path fill-rule="evenodd" clip-rule="evenodd" d="M12.1655 2.37393C11.5989 1.87536 10.7501 1.87536 10.1836 2.37393L4.04469 7.77616C3.93682 7.87108 3.875 8.00782 3.875 8.15151V15.8431H9.31445V12.4199C9.31445 11.8676 9.76217 11.4199 10.3145 11.4199H12.6475C13.1998 11.4199 13.6475 11.8676 13.6475 12.4199V15.8431H18.474V8.15151C18.474 8.00782 18.4122 7.87108 18.3044 7.77615L12.1655 2.37393ZM12.6475 15.8431L12.6475 12.4199H10.3145V15.8431H12.6475ZM2.875 8.15151V15.8431H1V17.0308H21.1913V15.8431H19.474V8.15151C19.474 7.72045 19.2886 7.31021 18.965 7.02544L12.8261 1.62322C11.8818 0.79226 10.4672 0.792262 9.52295 1.62322L3.38406 7.02544C3.06045 7.31022 2.875 7.72045 2.875 8.15151Z" fill="#298EC6"/>
</g>
<defs>
<clipPath id="clip0_10_6">
<rect width="22" height="18" fill="white"/>
</clipPath>
</defs>
</svg>
