<svg width="15" height="18" viewBox="0 0 15 18" fill="none" xmlns="http://www.w3.org/2000/svg">
<path d="M7.972 0.0517532C6.8965 -0.217122 5.8975 0.596253 5.8255 1.64925C5.7445 2.83163 5.56675 3.91725 5.344 4.563C5.20337 4.968 4.80512 5.70263 4.174 6.40688C3.54737 7.10775 2.73175 7.73213 1.77662 7.99313C1.02063 8.199 0.25 8.85375 0.25 9.81V14.3111C0.25 15.2618 1.01725 15.9581 1.879 16.0493C3.08275 16.1775 3.6385 16.5161 4.2055 16.8626L4.2595 16.8964C4.5655 17.082 4.90975 17.2879 5.35075 17.4409C5.79737 17.5939 6.31937 17.685 7 17.685H10.9375C11.9916 17.685 12.7364 17.1484 13.1132 16.488C13.2954 16.1764 13.3938 15.8229 13.399 15.462C13.399 15.291 13.3731 15.111 13.3124 14.94C13.5385 14.6441 13.7399 14.2898 13.8614 13.9264C13.9851 13.5551 14.0549 13.0691 13.8659 12.6338C13.9435 12.4875 14.0009 12.3311 14.0447 12.1804C14.1314 11.8766 14.1719 11.5414 14.1719 11.2163C14.1719 10.8923 14.1314 10.5581 14.0447 10.2533C14.0054 10.1131 13.9534 9.97679 13.8895 9.846C14.0865 9.56574 14.2132 9.24223 14.259 8.90273C14.3049 8.56324 14.2684 8.21771 14.1527 7.89525C13.921 7.22925 13.3855 6.65775 12.8027 6.46425C11.8499 6.147 10.7744 6.15375 9.97225 6.22688C9.80572 6.24186 9.63955 6.26062 9.47387 6.28313C9.86414 4.61181 9.8402 2.87046 9.40412 1.2105C9.32826 0.944541 9.18272 0.703674 8.98256 0.512812C8.7824 0.321949 8.53489 0.188021 8.26562 0.124878L7.972 0.0517532ZM10.9375 16.5611H7C6.42625 16.5611 6.02912 16.4835 5.7175 16.3766C5.40137 16.2675 5.14825 16.1201 4.8445 15.9345L4.7995 15.9075C4.17512 15.5261 3.45175 15.0851 1.99825 14.931C1.62362 14.8905 1.375 14.6048 1.375 14.3123V9.81C1.375 9.52425 1.62925 9.19913 2.0725 9.07875C3.30437 8.74125 4.29662 7.95825 5.01325 7.15725C5.72762 6.3585 6.21025 5.49788 6.406 4.932C6.67937 4.1445 6.86387 2.943 6.94825 1.72575C6.97637 1.3185 7.35325 1.0575 7.69862 1.143L7.99337 1.21725C8.17337 1.26225 8.28362 1.37813 8.31737 1.50413C8.77681 3.25465 8.72016 5.10069 8.15425 6.81975C8.12222 6.91536 8.11647 7.01783 8.13762 7.11642C8.15877 7.21501 8.20603 7.3061 8.27446 7.38016C8.34288 7.45423 8.42996 7.50853 8.52657 7.5374C8.62319 7.56627 8.72578 7.56863 8.82362 7.54425L8.827 7.54313L8.84275 7.53975L8.908 7.524C9.2927 7.44231 9.68187 7.38333 10.0735 7.34738C10.8194 7.27988 11.7126 7.28663 12.4472 7.53188C12.6441 7.59713 12.9535 7.86938 13.0885 8.26313C13.2089 8.60963 13.1864 9.01688 12.7892 9.41288L12.3921 9.81L12.7892 10.2083C12.8376 10.2566 12.9074 10.3669 12.9625 10.5626C13.0165 10.7505 13.0469 10.9789 13.0469 11.2163C13.0469 11.4548 13.0165 11.682 12.9625 11.871C12.9062 12.0668 12.8376 12.177 12.7892 12.2254L12.3921 12.6225L12.7892 13.0208C12.8421 13.0736 12.9119 13.2199 12.7949 13.5698C12.673 13.909 12.4792 14.218 12.2267 14.4754L11.8296 14.8725L12.2267 15.2708C12.2335 15.2764 12.2729 15.327 12.2729 15.462C12.2679 15.627 12.221 15.7881 12.1367 15.93C11.9511 16.254 11.5709 16.5611 10.9375 16.5611Z" fill="#198754"/>
</svg>
