<svg width="18" height="18" viewBox="0 0 18 18" fill="none" xmlns="http://www.w3.org/2000/svg">
<g clip-path="url(#clip0_10_25)">
<path fill-rule="evenodd" clip-rule="evenodd" d="M6.98391 15.0091H9.43148H12.0163C11.7801 16.1828 10.7433 17.0667 9.5001 17.0667C8.25687 17.0667 7.22008 16.1828 6.98391 15.0091ZM12.9633 15.0091H15.2407C15.8498 15.0091 16.3381 14.7624 16.6452 14.2238C16.9573 13.6801 16.9271 13.1314 16.6049 12.5978C16.5845 12.5642 16.5639 12.5305 16.5432 12.4967C16.4368 12.3226 16.3286 12.1456 16.2274 11.9685C15.8448 11.289 15.5881 10.5691 15.573 9.78882C15.557 9.04561 15.5552 8.30241 15.5535 7.5592C15.5525 7.13452 15.5515 6.70983 15.5478 6.28515C15.5428 5.94284 15.5327 5.59549 15.4874 5.25318C15.0293 1.9257 11.8881 -0.42015 8.55053 0.063115C5.61067 0.485972 3.38564 2.98284 3.31516 5.95291C3.29686 6.77648 3.29985 7.5974 3.30284 8.41952C3.30397 8.72805 3.30509 9.03675 3.30509 9.34583C3.30509 9.88447 3.23965 10.413 3.08359 10.9265C2.9074 11.5205 2.59026 12.0491 2.26809 12.5726C2.11706 12.8193 2.01135 13.076 2.00128 13.368C1.96604 14.2892 2.66074 15.0091 3.60713 15.0091H6.03685C6.28337 16.7008 7.74001 18 9.5001 18C11.2602 18 12.7168 16.7008 12.9633 15.0091ZM15.2206 13.9217H9.41638H3.62727C3.26985 13.9167 3.03829 13.6851 3.09366 13.373C3.1138 13.2724 3.16917 13.1767 3.22455 13.0861C3.6021 12.482 3.94441 11.8628 4.14074 11.1732C4.31189 10.5792 4.39244 9.97004 4.3874 9.35086C4.38237 8.29372 4.38237 7.23154 4.3874 6.16937C4.4025 3.91413 5.78182 2.01128 7.89611 1.33169C10.846 0.375224 13.9923 2.34352 14.4101 5.41427C14.4454 5.69617 14.4655 5.98814 14.4655 6.27508C14.4697 6.75541 14.4695 7.2366 14.4693 7.71795C14.4691 8.39184 14.4688 9.06602 14.4806 9.73848C14.5007 10.71 14.7826 11.6162 15.2609 12.4619C15.3917 12.6884 15.5277 12.9149 15.6636 13.1415C15.9052 13.5543 15.6988 13.9217 15.2206 13.9217Z" fill="#298EC6"/>
</g>
<defs>
<clipPath id="clip0_10_25">
<rect width="18" height="18" fill="white"/>
</clipPath>
</defs>
</svg>
