<svg width="18" height="18" viewBox="0 0 18 18" fill="none" xmlns="http://www.w3.org/2000/svg">
<g clip-path="url(#clip0_5_50429)">
<path fill-rule="evenodd" clip-rule="evenodd" d="M8 17.5C8 17.7761 8.22386 18 8.5 18C8.77614 18 9 17.7761 9 17.5V9H17.5C17.7761 9 18 8.77614 18 8.5C18 8.22386 17.7761 8 17.5 8H9V0.5C9 0.223858 8.77614 0 8.5 0C8.22386 0 8 0.223858 8 0.5V8H0.5C0.223858 8 0 8.22386 0 8.5C0 8.77614 0.223858 9 0.5 9H8V17.5Z" fill="#6e8998"/>
</g>
<defs>
<clipPath id="clip0_5_50429">
<rect width="18" height="18" fill="white"/>
</clipPath>
</defs>
</svg>
