<svg width="18" height="18" viewBox="0 0 18 18" fill="none" xmlns="http://www.w3.org/2000/svg">
<g clip-path="url(#clip0_6_1071)">
<path d="M1.83403 17.9965C1.48544 17.9014 1.14037 17.7993 0.848115 17.5704C0.355158 17.1866 0.0523408 16.6831 0.0206506 16.0634C-0.0110395 15.4261 -0.0110395 14.7852 0.0417774 14.1514C0.136848 13.0141 0.661496 12.0775 1.53474 11.3451C2.60516 10.4437 3.84459 9.86972 5.18262 9.49296C5.38333 9.43662 5.58755 9.38733 5.82699 9.28873C5.78474 9.26409 5.73544 9.24296 5.69671 9.21127C4.13685 7.84507 3.49248 6.13028 3.93262 4.10916C4.37981 2.05986 5.68614 0.725353 7.71431 0.176057C10.7742 -0.654929 13.8868 1.54578 14.1791 4.70423C14.4221 7.33803 12.7073 9.70423 10.1192 10.2817C9.73896 10.3662 9.34107 10.3979 8.95375 10.4014C7.45375 10.4225 5.99248 10.6268 4.59107 11.1796C3.7953 11.493 3.05234 11.8944 2.40445 12.4542C1.75657 13.0141 1.43262 13.7289 1.42206 14.5845C1.41502 15.007 1.41854 15.4296 1.42206 15.8486C1.42558 16.2923 1.71783 16.588 2.15797 16.588C6.72488 16.588 11.2953 16.588 15.8622 16.588C16.3023 16.588 16.6016 16.2923 16.6016 15.8486C16.5981 15.2993 16.6157 14.7465 16.5664 14.2007C16.503 13.5141 16.1756 12.9437 15.6615 12.4859C15.1368 12.0176 14.5383 11.669 13.9009 11.3768C13.5347 11.2077 13.3728 10.8697 13.4784 10.5176C13.5911 10.1444 13.9925 9.90141 14.3516 10.0528C15.4784 10.5317 16.5136 11.1514 17.2495 12.169C17.6615 12.7394 17.8974 13.3838 17.9819 14.081C17.9854 14.1197 18.003 14.1585 18.0136 14.1972C18.0136 14.8521 18.0136 15.5106 18.0136 16.1655C18.003 16.2042 17.9854 16.2394 17.9784 16.2782C17.8023 17.0634 17.3411 17.5986 16.5876 17.8768C16.4573 17.9261 16.3235 17.9542 16.1897 17.993C11.3939 17.9965 6.61572 17.9965 1.83403 17.9965ZM5.20727 5.20423C5.20727 7.29578 6.9115 9.00352 9.00657 9C11.0911 9 12.7953 7.2993 12.7988 5.21479C12.8023 3.11972 11.1016 1.41197 9.01009 1.41197C6.91502 1.40845 5.21079 3.11268 5.20727 5.20423Z" fill="#298EC6"/>
</g>
<defs>
<clipPath id="clip0_6_1071">
<rect width="18" height="17.9965" fill="white"/>
</clipPath>
</defs>
</svg>
