<svg width="18" height="18" viewBox="0 0 18 18" fill="none" xmlns="http://www.w3.org/2000/svg">
<g clip-path="url(#clip0_19_4)">
<path d="M9 16.875C6.91142 16.875 4.90838 16.0453 3.43153 14.5685C1.95469 13.0916 1.125 11.0886 1.125 9C1.125 6.91142 1.95469 4.90838 3.43153 3.43153C4.90838 1.95469 6.91142 1.125 9 1.125C11.0886 1.125 13.0916 1.95469 14.5685 3.43153C16.0453 4.90838 16.875 6.91142 16.875 9C16.875 11.0886 16.0453 13.0916 14.5685 14.5685C13.0916 16.0453 11.0886 16.875 9 16.875ZM9 18C11.3869 18 13.6761 17.0518 15.364 15.364C17.0518 13.6761 18 11.3869 18 9C18 6.61305 17.0518 4.32387 15.364 2.63604C13.6761 0.948212 11.3869 0 9 0C6.61305 0 4.32387 0.948212 2.63604 2.63604C0.948212 4.32387 0 6.61305 0 9C0 11.3869 0.948212 13.6761 2.63604 15.364C4.32387 17.0518 6.61305 18 9 18Z" fill="#298EC6"/>
<path d="M5.91186 6.50925C5.91032 6.54558 5.91623 6.58184 5.92922 6.61581C5.94221 6.64977 5.96202 6.68072 5.98741 6.70674C6.0128 6.73277 6.04326 6.75333 6.07689 6.76715C6.11052 6.78097 6.14663 6.78777 6.18298 6.78712H7.11111C7.26636 6.78712 7.39011 6.66 7.41036 6.50587C7.51161 5.76787 8.01786 5.23013 8.92011 5.23013C9.69186 5.23013 10.3984 5.616 10.3984 6.54412C10.3984 7.2585 9.97761 7.587 9.31273 8.0865C8.55561 8.63663 7.95599 9.279 7.99874 10.3219L8.00211 10.566C8.00329 10.6398 8.03344 10.7102 8.08606 10.762C8.13868 10.8137 8.20954 10.8428 8.28336 10.8427H9.19573C9.27033 10.8427 9.34186 10.8131 9.39461 10.7604C9.44735 10.7076 9.47698 10.6361 9.47698 10.5615V10.4434C9.47698 9.63562 9.78411 9.4005 10.6132 8.77162C11.2984 8.25075 12.0127 7.6725 12.0127 6.45863C12.0127 4.75875 10.5772 3.9375 9.00561 3.9375C7.58024 3.9375 6.01874 4.60125 5.91186 6.50925ZM7.66348 12.9926C7.66348 13.5922 8.14161 14.0355 8.79973 14.0355C9.48486 14.0355 9.95624 13.5922 9.95624 12.9926C9.95624 12.3716 9.48373 11.9351 8.79861 11.9351C8.14161 11.9351 7.66348 12.3716 7.66348 12.9926Z" fill="#298EC6"/>
</g>
<defs>
<clipPath id="clip0_19_4">
<rect width="18" height="18" fill="white"/>
</clipPath>
</defs>
</svg>
