<svg width="18" height="18" viewBox="0 0 18 18" fill="none" xmlns="http://www.w3.org/2000/svg">
<g clip-path="url(#clip0_6_1056)">
<path d="M17.2898 17.9963C17.1536 17.9006 16.999 17.8233 16.8812 17.7055C15.4051 16.2589 13.9327 14.8086 12.4567 13.3583C12.4199 13.3215 12.3794 13.2883 12.3352 13.2442C12.2837 13.2773 12.2358 13.3104 12.1916 13.3436C11.2162 14.0871 10.1192 14.573 8.91188 14.7791C7.1082 15.0883 5.38918 14.816 3.79532 13.8994C2.13519 12.946 0.983047 11.562 0.368323 9.74724C0.184274 9.20982 0.0738449 8.65399 0.0333541 8.08344C0.0296731 8.03927 0.0149492 7.9951 0.00390625 7.95092C0.00390625 7.62332 0.00390625 7.29571 0.00390625 6.9681C0.048078 6.66994 0.0848878 6.3681 0.140103 6.06994C0.342557 4.99141 0.769551 4.00491 1.42477 3.12148C2.50697 1.66381 3.92047 0.680984 5.68734 0.25031C8.1536 -0.34969 10.41 0.136199 12.3904 1.72638C13.9769 3 14.8935 4.67853 15.0996 6.71043C15.28 8.4773 14.8567 10.1117 13.8518 11.5841C13.6493 11.8822 13.4174 12.162 13.1671 12.4896C13.2113 12.519 13.2738 12.5485 13.318 12.5926C14.7978 14.0466 16.2738 15.4969 17.7499 16.9509C18.0076 17.2049 18.0738 17.481 17.8972 17.7166C17.8088 17.8344 17.6579 17.908 17.5327 18C17.4554 17.9963 17.3745 17.9963 17.2898 17.9963ZM1.16342 7.22945C1.15973 8.2454 1.35115 9.22086 1.67875 9.92025C2.70943 12.1178 4.43213 13.3988 6.83949 13.7006C8.52538 13.9141 10.0824 13.5018 11.4334 12.4638C13.3511 10.9914 14.2088 9.02209 13.9033 6.61841C13.6346 4.50184 12.4898 2.9043 10.6125 1.92148C8.48121 0.802457 6.30575 0.85031 4.23335 2.09448C2.23458 3.29448 1.24808 5.12761 1.16342 7.22945Z" fill="#298EC6"/>
</g>
<defs>
<clipPath id="clip0_6_1056">
<rect width="18" height="17.9963" fill="white"/>
</clipPath>
</defs>
</svg>
