<svg width="18" height="18" viewBox="0 0 18 18" fill="none" xmlns="http://www.w3.org/2000/svg">
<g clip-path="url(#clip0_21_1636)">
<path d="M18 3.78079C17.8732 4.20355 17.7416 4.6263 17.6195 5.05376C17.0418 7.0595 16.4734 9.06994 15.8956 11.0757C15.7923 11.4327 15.6326 11.5501 15.2615 11.5501C12.3069 11.5501 9.35699 11.5501 6.4024 11.5454C6.21921 11.5454 6.12526 11.5971 6.0501 11.7662C5.83403 12.2312 6.0642 12.607 6.5809 12.607C9.46973 12.607 12.3586 12.607 15.2474 12.607C15.3225 12.607 15.4024 12.6023 15.4729 12.6211C15.7312 12.6775 15.9097 12.917 15.8862 13.1754C15.8627 13.4478 15.642 13.6592 15.3554 13.6592C14.8011 13.6639 14.2422 13.6592 13.6832 13.6592C13.6315 13.6592 13.5846 13.6592 13.4859 13.6592C14.4301 13.9457 14.9421 14.6456 14.8199 15.4395C14.6931 16.2568 14.0402 16.8299 13.237 16.8252C12.4431 16.8205 11.7902 16.2333 11.6822 15.4301C11.5976 14.8194 11.9123 13.9316 13.0068 13.6733C11.3862 13.6733 9.80793 13.6733 8.20616 13.6733C9.11273 13.9363 9.62474 14.6315 9.5167 15.4254C9.40397 16.238 8.74635 16.8252 7.94781 16.8252C7.14927 16.8252 6.48225 16.2427 6.37422 15.4301C6.28967 14.81 6.61378 13.9316 7.66127 13.6639C7.30428 13.6639 6.94259 13.6639 6.58559 13.6639C5.74478 13.6639 5.12004 13.1895 4.94154 12.4144C4.8523 12.0292 4.90866 11.6487 5.11065 11.3105C5.24687 11.0804 5.25157 10.8737 5.17641 10.62C4.36848 7.81576 3.56994 5.01618 2.7714 2.2166C2.75731 2.16493 2.73852 2.11795 2.71973 2.05689C2.23591 2.05689 1.75678 2.05689 1.27766 2.05689C1.0334 2.05689 0.784447 2.06159 0.540188 2.05689C0.230167 2.04749 0 1.81733 0 1.5261C0 1.23017 0.234864 1.0047 0.549582 1C1.39509 1 2.2453 1 3.09551 1C3.38674 1 3.56524 1.14562 3.64979 1.44624C3.8095 1.99582 3.96451 2.54541 4.12422 3.10908C4.20407 3.10908 4.27923 3.10908 4.35438 3.10908C8.67119 3.10908 12.9927 3.10908 17.3095 3.10438C17.6336 3.10438 17.8638 3.19833 18 3.49426C18 3.5929 18 3.68685 18 3.78079Z" fill="white"/>
</g>
<defs>
<clipPath id="clip0_21_1636">
<rect width="18" height="18" fill="white"/>
</clipPath>
</defs>
</svg>
