<svg width="18" height="18" viewBox="0 0 18 18" fill="none" xmlns="http://www.w3.org/2000/svg">
<g clip-path="url(#clip0_6_1070)">
<path d="M8.97314 3.14311C9.34881 2.78891 9.66545 2.43471 10.0358 2.13954C11.4848 0.991057 13.1055 0.695887 14.8336 1.33989C16.5617 1.9839 17.6082 3.26655 17.9195 5.08587C18.1985 6.70125 17.7424 8.13417 16.5939 9.29875C14.2379 11.6816 11.8604 14.0429 9.49371 16.4097C9.17708 16.7263 8.81751 16.7209 8.50087 16.4043C6.14488 14.0537 3.78352 11.7084 1.44362 9.34168C-1.01434 6.85152 -0.225428 2.72988 2.98924 1.40966C4.89443 0.626119 6.66545 0.980323 8.2057 2.35421C8.47403 2.59571 8.71017 2.87478 8.97314 3.14311ZM8.99997 15.0733C9.06437 15.0089 9.11804 14.9606 9.17171 14.9123C9.96062 14.1234 10.7549 13.3345 11.5438 12.5403C12.9338 11.1503 14.3399 9.76565 15.7137 8.35957C16.5563 7.5009 16.873 6.43828 16.6529 5.2576C16.39 3.86762 15.5635 2.90698 14.2111 2.48301C12.8533 2.05367 11.635 2.37567 10.5993 3.35778C10.2343 3.70125 9.88548 4.06619 9.53128 4.42039C9.17171 4.77997 8.82824 4.77997 8.46867 4.42576C8.08763 4.05009 7.71733 3.66369 7.33092 3.29338C5.78531 1.81753 3.28441 2.0322 2.00176 3.73882C0.923051 5.1771 1.06795 7.14669 2.36133 8.44544C4.52412 10.619 6.69765 12.7818 8.86581 14.9499C8.90337 14.9875 8.94631 15.0197 8.99997 15.0733Z" fill="#298EC6"/>
</g>
<defs>
<clipPath id="clip0_6_1070">
<rect width="18" height="18" fill="white"/>
</clipPath>
</defs>
</svg>
